<svg id="Icons" xmlns="http://www.w3.org/2000/svg" viewBox="0 0 475.55 475.55"><defs><style>.cls-1{fill:#310000;}.cls-2{fill:#eea808;}</style></defs><rect class="cls-1" x="15" y="15" width="445.55" height="445.55"/><path class="cls-2" d="M445.55,30V445.55H30V30H445.55m30-30H0V475.55H475.55V0Z"/><path class="cls-2" d="M163,280.3,146.8,329a2.93,2.93,0,0,1-3.25,2.36H114c-1.78,0-2.37-.89-2.07-2.95l60.85-173.1c1.18-3,2.07-5.91,2.66-16,0-1.18.59-2.06,1.77-2.06h41.06c1.48,0,1.77.29,2.07,1.77l68.24,189.64c.29,1.77,0,2.66-1.78,2.66H253.73a3,3,0,0,1-2.95-1.77L233.64,280.3Zm61.15-32.2c-6.2-19.5-20.09-60.56-26-81.23h-.29c-4.73,19.79-16.54,54.35-25.41,81.23Z"/><path class="cls-2" d="M308.07,145.6c0-12.11,8.57-20.39,20.39-20.39,12.7,0,20.08,8.57,20.08,20.39,0,12.11-8,20.38-20.38,20.38C316.05,166,308.07,157.71,308.07,145.6Zm2.07,42.24c0-1.48.89-2.07,2.37-2.07h31.31c1.77,0,2.36.3,2.36,2.07V329c0,1.77-.59,2.36-2.66,2.36H313.1c-2.07,0-3-.89-3-2.66Z"/></svg>