<svg id="Icons" xmlns="http://www.w3.org/2000/svg" viewBox="0 0 475.55 475.55"><defs><style>.cls-1{fill:#49001c;}.cls-2{fill:#ff0a61;}</style></defs><rect class="cls-1" x="15" y="15" width="445.55" height="445.55"/><path class="cls-2" d="M445.55,30V445.55H30V30H445.55m30-30H0V475.55H475.55V0Z"/><path class="cls-2" d="M176.18,328.74c0,2.07-.59,2.66-2.36,2.66h-31c-1.77,0-2.36-.89-2.36-2.66v-189c0-2.07.89-2.36,2.36-2.36h31c1.77,0,2.36.59,2.36,2.36Z"/><path class="cls-2" d="M206,259.92c0-42.84,31.9-77.1,83.89-77.1a102.29,102.29,0,0,1,12.7.88V123.15c0-1.48.59-2.07,1.77-2.07h32.2c1.48,0,1.48.59,1.48,1.77V301.27c0,5.91.59,13.59,1.18,18.91a2.3,2.3,0,0,1-1.77,2.65,139.93,139.93,0,0,1-55.83,11.52C238.81,334.35,206,309.54,206,259.92Zm96.59-45.2a39.21,39.21,0,0,0-13.88-2.07c-26.29,0-46.09,16.84-46.09,45.49,0,32.2,19.21,45.49,42.84,45.49a54.68,54.68,0,0,0,17.13-2.36Z"/></svg>